<?xml version="1.0" standalone="no"?>
<!DOCTYPE svg PUBLIC "-//W3C//DTD SVG 20010904//EN"
 "http://www.w3.org/TR/2001/REC-SVG-20010904/DTD/svg10.dtd">
<svg version="1.0" xmlns="http://www.w3.org/2000/svg"
 width="225.000000pt" height="225.000000pt" viewBox="0 0 225.000000 225.000000"
 preserveAspectRatio="xMidYMid meet">

<g transform="translate(0.000000,225.000000) scale(0.100000,-0.100000)"
fill="#000000" stroke="none">
<path d="M878 2105 c-40 -23 -48 -44 -36 -96 17 -73 12 -187 -11 -253 -49
-140 -126 -222 -340 -363 -312 -207 -412 -365 -398 -633 14 -284 196 -520 464
-600 40 -12 77 -20 82 -18 6 1 -3 23 -19 46 -99 147 -142 462 -91 657 52 195
215 358 395 395 39 8 101 10 185 6 69 -4 131 -3 137 1 15 11 57 96 80 163 28
81 25 234 -5 320 -83 237 -325 442 -443 375z"/>
<path d="M1682 1620 c-43 -10 -80 -45 -102 -95 -34 -76 -35 -131 -4 -210 7
-20 7 -20 -15 -1 -12 11 -27 39 -34 64 l-13 44 -80 -85 c-122 -131 -124 -132
-339 -133 -163 0 -185 -2 -235 -23 -78 -32 -142 -83 -195 -154 -93 -123 -118
-205 -118 -382 1 -206 61 -404 145 -480 l38 -35 408 2 407 3 3 25 c1 14 -7 40
-18 58 -32 52 -90 72 -248 85 -136 12 -137 12 -140 38 -2 16 9 43 32 75 83
118 100 181 73 275 -38 128 -119 193 -243 193 -49 0 -75 -7 -126 -31 l-63 -32
38 34 c64 56 164 73 262 45 100 -28 177 -148 177 -275 0 -75 -17 -118 -81
-195 -28 -34 -51 -70 -51 -81 0 -17 5 -19 43 -13 117 18 284 97 368 175 l54
50 -38 -6 c-97 -16 -222 62 -267 166 -12 28 -20 53 -18 55 2 2 25 -26 50 -61
26 -35 66 -76 89 -92 47 -31 84 -34 236 -18 78 8 83 7 148 -24 86 -40 106 -39
144 4 37 42 38 53 9 90 -32 40 -76 55 -170 55 -94 0 -151 20 -186 65 -23 29
-36 78 -30 116 3 18 8 11 21 -32 26 -87 86 -134 87 -68 0 18 36 53 65 63 11 4
81 11 155 15 199 11 247 41 238 146 -11 129 -135 289 -291 375 -43 23 -85 53
-93 65 -8 13 -21 51 -28 86 -7 34 -17 64 -22 65 -5 1 -24 -2 -42 -6z m28 -44
c0 -8 -9 -18 -20 -21 -40 -13 -90 -88 -90 -136 0 -11 -4 -19 -10 -19 -10 0 -5
43 13 100 18 59 107 122 107 76z m210 -295 c16 -31 12 -49 -15 -67 -23 -15
-27 -15 -50 0 -43 28 -26 86 25 86 19 0 33 -7 40 -19z"/>
</g>
</svg>
